<svg xmlns="http://www.w3.org/2000/svg" viewBox="0 0 800 800" width="800" height="800">
  <defs>
    <linearGradient id="bg-tee2" x1="0" y1="0" x2="1" y2="1">
      <stop offset="0%" stop-color="#102844"/>
      <stop offset="100%" stop-color="#0b1f3a"/>
    </linearGradient>
    <linearGradient id="shirt2" x1="0" y1="0" x2="0" y2="1">
      <stop offset="0%" stop-color="#2789c2"/>
      <stop offset="100%" stop-color="#125a8c"/>
    </linearGradient>
  </defs>
  <rect width="800" height="800" fill="url(#bg-tee2)"/>
  <g transform="translate(400 420)">
    <path d="M-205 -150 L-125 -185 Q-100 -150 0 -150 Q100 -150 125 -185 L205 -150 L255 -60 L160 -25 L160 220 Q70 240 0 240 Q-70 240 -160 220 L-160 -25 L-255 -60 Z" fill="url(#shirt2)" stroke="#0b1f3a" stroke-width="3"/>
    <!-- collar back -->
    <path d="M-50 -150 Q0 -180 50 -150" stroke="#0b1f3a" stroke-width="4" fill="none"/>
    <text y="60" font-family="Inter, system-ui" font-weight="900" font-size="56" fill="#ffd065" text-anchor="middle">DIVE</text>
    <text y="105" font-family="Inter, system-ui" font-weight="700" font-size="18" letter-spacing="6" fill="#ffd065" text-anchor="middle">TAIWAN · 2026</text>
    <path d="M-110 150 Q-55 130 0 150 T110 150" stroke="#e85b3c" stroke-width="4" fill="none"/>
  </g>
  <text x="40" y="60" font-family="Inter, system-ui" font-weight="700" font-size="13" letter-spacing="4" fill="#ffd065">BACK PRINT</text>
</svg>
